<svg xmlns="http://www.w3.org/2000/svg" width="19.875" height="19.5"><path fill="#EEC800" d="M9.939.355c-5.097 0-9.229 4.132-9.229 9.229 0 5.096 4.132 9.229 9.229 9.229s9.229-4.133 9.229-9.229c0-5.097-4.132-9.229-9.229-9.229zm0 16.1c-3.794 0-6.87-3.076-6.87-6.872 0-3.794 3.076-6.87 6.87-6.87s6.87 3.076 6.87 6.87c.001 3.796-3.076 6.872-6.87 6.872z"/><path fill="#EEC800" d="M13.87 11.471l-3.62-1.799v-4.088c0-.509-.49-.922-1-.922-.509 0-1 .413-1 .922v4.68c0 .368.216.686.53.833l.023.013 4.177 2.031c.461.224 1.056.03 1.279-.43.225-.461.075-1.017-.389-1.24z"/></svg>